#!OML:ASF E:/inclinewalkrobotboard/Project1/Captureday1/Session1/subject1.ASF
:FULLY-SPECIFIED
:DEGREES
13
root 0 0 0 -2.748805810184492 0.1905474118826871 0.45805271878640985
lowerback 10.040815478786032 -1.4386990226404364 -2.1741950933876115
upperback 0.1547126001263518 -2.0341400234398597 2.0785902641730054
thorax -5.364475353194018 -0.9378090319810757 3.6741540540140867
lowerneck -17.959631099140648 -2.5616485420728137 -2.2378058538141676
upperneck 19.399856468351565 -2.83902564081923 -0.6535995471614295
head 8.938766947365375 -1.546216402014002 -0.2532885453307873
rclavicle 1.4627638878224806E-15 7.646451762049148E-16
rhumerus -33.31599023152801 -27.35276055962602 -79.15931337985865
rradius 19.603713455425584
rwrist 10.597788619422833
rhand -19.208932521870278 24.692632182731504
rfingers 7.125020000000008
rthumb 7.1271636936147615 -5.3324786421697645
lclavicle 4.45809332787368E-15 2.152536666582568E-15
lhumerus -28.33917284213588 -3.3295907844336794 81.71889175135402
lradius 31.293195773588494
lwrist 8.280157327306945
lhand -28.352283581189667 25.671231669489632
lfingers 7.125020000000019
lthumb -1.7419781714523062 55.70143595387145
rfemur -25.34611096945626 5.103689232085962 23.72035918421031
rtibia 34.96812751278563
rfoot -8.094058178238658 -9.583017187630665
rtoes 1.1582373969048223
lfemur 10.237251673197008 -4.21911506696718 -25.106514656319373
ltibia 30.090923759762045
lfoot -8.229367687131536 -6.223824683194209
ltoes -8.156987912957366
14
root 0 0 0 -2.950992085990978 0.0767152490500167 -0.4928007100307257
lowerback 11.129796719509624 -1.5467538305269177 -1.3060146979419829
upperback 0.49998278459872725 -2.057365935331835 2.341815813220851
thorax -5.625736181591959 -0.9706126975263343 3.4495280220883937
lowerneck -17.88859188988127 -2.635742714379415 -2.0774711103532146
upperneck 16.609128019770516 -2.8143737168410032 -0.9489585178961162
head 7.989189225219974 -1.5954542058890129 -0.3492121041235818
rclavicle 1.0256335373954312E-15 1.8851312584021749E-16
rhumerus -33.15424100900172 -27.389718763857786 -79.05669771300803
rradius 19.376852979501365
rwrist 11.017681712116854
rhand -19.02008666439141 24.624608985300068
rfingers 7.12502000000001
rthumb 7.30686315109134 -5.380584608414431
lclavicle 3.4547876129123486E-15 1.4383475553471963E-15
lhumerus -28.514176913163304 -3.115374743032812 82.12281031627796
lradius 30.827893098868856
lwrist 8.076975460943917
lhand -28.297548036788456 25.738956929303846
lfingers 7.125020000000024
lthumb -1.6856694223874822 55.7666024029796
rfemur -21.494659967015895 5.4438499196830925 25.64753612397643
rtibia 36.542843244220535
rfoot -7.685199915465967 -8.201963704680267
rtoes 4.176011735919807
lfemur 1.9493193977310197 -1.9949249863377663 -21.572514907769147
ltibia 45.31462410769272
lfoot 1.9925299722123206 -12.329825820826809
ltoes -2.337984082980398
15
root 0 0 0 -3.029318010513766 -0.15391122221026388 -1.5336459867676455
lowerback 11.511911621715303 -1.5026549133833909 -0.3737527404884362
upperback 0.5111790426478358 -1.8750806819727155 2.5128779398719194
thorax -5.847457828137725 -0.903620374223147 3.070040894878433
lowerneck -17.999264613615548 -2.5648657491810405 -1.893226043799738
upperneck 15.166618901439826 -2.718838153262525 -0.9894630926782717
head 7.5761726011561 -1.5543787804014457 -0.3638866399441642
rclavicle 6.106413867985554E-16 -1.2217238228020657E-15
rhumerus -32.93995979536993 -27.085464701005705 -79.10168385911084
rradius 19.013479433238473
rwrist 11.443310251405073
rhand -18.783851869675935 24.785998714212997
rfingers 7.125020000000012
rthumb 7.531693440496078 -5.189744346930688
lclavicle 1.7545235837885085E-15 -3.837098607832383E-16
lhumerus -28.595169679485814 -2.7670124899591166 82.96042288559252
lradius 29.832022803099118
lwrist 7.60398124099231
lhand -28.226303277159175 25.813184835167185
lfingers 7.125020000000033
lthumb -1.6094601258975185 55.84277104602056
rfemur -13.354040277285353 6.449662150613888 30.50779729367789
rtibia 40.011621691954446
rfoot -8.212942681970137 -6.178330816384678
rtoes 8.421351012981484
lfemur -6.825970419447366 1.538136713218151 -18.829373668351764
ltibia 54.32348266122027
lfoot 7.7292874537223994 -15.714165086229642
ltoes -1.3689167460687024
16
root 0 0 0 -3.179832509476723 -0.9298376944013922 -2.702252156565697
lowerback 11.218741347614934 -1.2079149537574545 0.7514578765190258
upperback -0.00280343979735434 -1.3471136830725217 2.607899472635754
thorax -6.243388541776156 -0.664406946747826 2.463533050296176
lowerneck -18.35853990126273 -2.4617815994926104 -1.6382654385943534
upperneck 15.28694878797074 -2.691048571239395 -0.8828788768263143
head 7.7921091479681595 -1.4985412207568825 -0.3622256439329184
rclavicle 3.805875949908612E-16 -2.1692144903610076E-15
rhumerus -32.77778722270657 -26.130112664404923 -79.45182361125472
rradius 19.0630950420989
rwrist 11.764548663169084
rhand -18.5951814479915 25.048272359840134
rfingers 7.125020000000013
rthumb 7.7120630149358265 -4.883866090397692
lclavicle -4.801763176137336E-16 -1.7021631988083377E-15
lhumerus -28.69999648015221 -2.0378291990978887 84.03257649492092
lradius 28.114342227551433
lwrist 6.790965948983434
lhand -28.191942321981728 25.95152254417446
lfingers 7.125020000000041
lthumb -1.5686600726277629 55.98686918660442
rfemur -9.24722126825154 7.157973580311522 33.58581991773621
rtibia 40.360560618687416
rfoot -10.634803801696524 -5.638692089280086
rtoes 9.955996985900539
lfemur -11.525201917078405 3.4858944284747047 -18.032657887897997
ltibia 57.79212389163965
lfoot 7.026537835583323 -15.247726809773773
ltoes -1.7384830161378595
17
root 0 0 0 -3.3583071217185605 -3.2872727934184893 -5.658329639082494
lowerback 8.727805655413501 0.2445540467626025 3.638312747818584
upperback -1.1022518032893855 0.9477587762011519 2.730504924063837
thorax -5.957507453732935 0.4064903497717717 0.6922508047440891
lowerneck -18.949284368958246 -2.8776814592461637 -1.5191621689545216
upperneck 19.34893380579241 -3.554649792810185 -0.22266301804203814
head 9.322077461944868 -1.7694222091261378 -0.31015721290417403
rclavicle -1.2644649751138633E-15 -7.163070031336217E-16
rhumerus -32.80499045533429 -23.548380009416462 -80.6375182181455
rradius 20.10252628511855
rwrist 11.37948108748607
rhand -18.617460534397352 25.61066653522832
rfingers 7.125020000000014
rthumb 7.692621838791596 -4.281775823556281
lclavicle -3.9518901581683056E-15 -5.973931391546164E-16
lhumerus -29.16779822782201 -1.3188596059896076 85.19141036240148
lradius 26.512135147911053
lwrist 6.122815389508178
lhand -28.09176561270378 26.09456573740092
lfingers 7.125020000000045
lthumb -1.4690108177910624 56.12010137276606
rfemur -5.194831957812351 7.826598346059182 34.58758796144033
rtibia 34.11313694799044
rfoot -15.291026690286817 -5.980328835857154
rtoes 8.485984674590451
lfemur -22.993314692124812 3.6066842101967644 -13.18372842866994
ltibia 56.90962502403866
lfoot 2.8000190750208915 -9.1498717560346
ltoes -6.043758546482902
18
root 0 0 0 -2.9038945793144055 -4.8790836821821495 -7.426661816225964
lowerback 8.650490281501614 1.3986924342871774 5.683084536569284
upperback -0.8515598500388496 2.7314309475903986 2.744474069649516
thorax -5.583323464562437 1.2443074095256201 -0.6845345050681776
lowerneck -18.613922501098664 -3.3443926729415683 -1.7830974051334274
upperneck 21.059900760856408 -4.233604490241669 0.2671194511739956
head 9.817668023735067 -2.06322261778114 -0.2050754495248231
rclavicle -2.86472875762347E-15 1.6557513908677366E-15
rhumerus -32.75087073729346 -21.167267452859395 -81.48533881054747
rradius 21.301686002694055
rwrist 9.828624620707679
rhand -18.813545439139347 26.232516050889146
rfingers 7.125020000000014
rthumb 7.5052769193214175 -3.6403818920998177
lclavicle -5.954508717775977E-15 1.6460759295468243E-15
lhumerus -29.980094389249437 -0.9251563082102722 85.56037965719393
lradius 26.09639988130189
lwrist 6.004578425521216
lhand -27.926793302584663 26.1415823581244
lfingers 7.125020000000045
lthumb -1.31516846490514 56.171570967984444
rfemur -2.199893412671467 8.323926245443852 34.69504937625518
rtibia 29.056869350633967
rfoot -17.600400300721844 -6.169211502328611
rtoes 7.026418773273658
lfemur -28.966180829879868 2.8852313282865323 -10.730757855298044
ltibia 54.03417612432739
lfoot 0.3576037363226767 -5.279933159212604
ltoes -7.840471103659386
19
root 0 0 0 -2.3410924578194674 -5.653296123759058 -7.49170385727666
lowerback 11.363606099727779 1.9742775315388794 6.299394326832242
upperback 0.791256392196256 3.5421072801836955 2.4953553695456474
thorax -5.3218877231652275 1.6289958919675012 -1.430673039270685
lowerneck -17.52939008326574 -3.4732963521266322 -1.9312841438339592
upperneck 21.826107613519614 -4.378584187369178 0.36178976131807183
head 9.915031902318711 -2.138703825657811 -0.16226218148524324
rclavicle -3.116968960324803E-15 2.8219584526880468E-15
rhumerus -31.88931443150369 -18.42438993813886 -81.92683437593521
rradius 23.36652208269168
rwrist 8.46014224505916
rhand -19.16014179583112 27.465848676022915
rfingers 7.125020000000015
rthumb 7.171897918454578 -2.42416846353445
lclavicle -6.439495255974247E-15 2.4131463760189523E-15
lhumerus -30.524018408935227 -0.5549604044620048 85.92057902689524
lradius 25.577573645778735
lwrist 5.866733803486525
lhand -27.857478356655307 26.304656172376983
lfingers 7.125020000000045
lthumb -1.2506164876416408 56.34191654955087
rfemur -0.6300790596986898 8.580057182956962 34.92832380216264
rtibia 27.183934200697827
rfoot -18.651684125378758 -6.351792080393635
rtoes 5.683609996035624
lfemur -30.78841104008392 1.479683857011894 -10.040430612319836
ltibia 47.47163755289567
lfoot -1.903842535524035 -1.9894003847043655
ltoes -9.192340192891745
20
root 0 0 0 -2.214358737651831 -5.967930958723693 -7.247804412926396
lowerback 11.870795290921818 2.2206202796844035 6.338716130467406
upperback 1.22597809083818 3.8397118389204374 2.2123810757035516
thorax -5.149011631677442 1.7712954690341614 -1.7958784412801272
lowerneck -17.301838471308177 -3.4577829125522515 -1.9360158210991063
upperneck 21.9607643832202 -4.386211488747524 0.3985702656286223
head 9.921467068037138 -2.1339502942260773 -0.14618170675052056
rclavicle -2.9581529836759487E-15 2.954845225797326E-15
rhumerus -30.30821293308092 -15.7878741335551 -82.16295301234354
rradius 26.24611323543499
rwrist 8.304386456319516
rhand -19.615437391474902 28.667657464744785
rfingers 7.125020000000013
rthumb 6.732440184267892 -1.2679249200505325
lclavicle -6.382621457562934E-15 2.367663743410983E-15
lhumerus -30.49153747081057 -0.3469603921836597 86.05572166430493
lradius 25.156468662468807
lwrist 5.723377037937465
lhand -27.91578523389599 26.44743159596144
lfingers 7.125020000000045
lthumb -1.3064861106010355 56.49300529975646
rfemur 0.09641145598759326 8.537280012453667 35.17158089321857
rtibia 27.701464606417364
rfoot -19.14491303768014 -6.483468912062241
rtoes 3.624952987979196
lfemur -30.8867781872548 -0.4692793203317538 -10.052396573426064
ltibia 36.27675972562928
lfoot -5.293451605574331 2.063492355195482
ltoes -10.240773685382859
